<svg xmlns="http://www.w3.org/2000/svg" width="42.356" height="13.854"><path fill="#fff" d="M6.7 10.17H5.2l-.55-2.1c-.14-.5-.28-1.1-.35-1.5l-.1-.6c-.03.25-.05.34-.14.78-.12.53-.4 1.6-.53 2.16l-.3 1.3h-1.5L.03 4.13l1.6-.18.5 2.36c.16.64.33 1.67.37 1.9.08-.46.26-1.44.45-2.13L3.53 4h1.5l.5 2.03c.24 1.02.42 1.96.45 2.17.04-.27.17-1.23.34-2L6.8 4H8.4L6.7 10.17zm6.5-.72c-.47.53-1.08.85-2.03.85-1.67 0-2.76-1.25-2.76-3.18 0-1.93 1.1-3.2 2.8-3.2.86 0 1.55.3 2.1.9.47.6.7 1.26.7 2.26 0 1.05-.26 1.77-.78 2.37zm-1.3-4.03c-.17-.2-.42-.32-.7-.32-.4 0-.7.24-.83.62-.1.32-.17.76-.17 1.37 0 .7.07 1.2.2 1.5.15.35.5.5.82.5.7 0 1-.6 1-2.06 0-.82-.1-1.36-.33-1.64zm7.33 4.03c-.46.53-1.08.85-2.02.85-1.64 0-2.73-1.25-2.73-3.18 0-1.93 1.1-3.2 2.76-3.2.88 0 1.57.3 2.1.9.48.6.7 1.26.7 2.26 0 1.05-.24 1.77-.77 2.37zm-1.3-4.03c-.16-.2-.4-.32-.7-.32-.38 0-.7.24-.83.62-.1.32-.17.76-.17 1.37 0 .7.08 1.2.2 1.5.15.35.5.5.82.5.7 0 1-.6 1-2.06 0-.82-.1-1.36-.32-1.64zm7.86-.26c-.2 0-.36-.03-.46-.04.24.3.36.6.36 1 0 1.06-.94 1.83-2.25 1.83-.07 0-.12 0-.24 0-.4.18-.62.33-.62.5 0 .08.1.14.27.14h.86c.96 0 1.45.14 1.88.53.36.34.53.76.53 1.3 0 .52-.15.92-.5 1.28-.53.6-1.45.8-2.4.8-.88 0-1.78-.14-2.34-.66-.33-.3-.5-.67-.5-1.1 0-.33.08-.5.14-.6h1.47c-.06.13-.07.2-.07.38 0 .5.42.76 1.16.76.4 0 .76-.06 1-.2.25-.16.4-.4.4-.64 0-.55-.5-.72-1.12-.73h-.7c-.7 0-1.17-.07-1.46-.2-.3-.1-.47-.4-.47-.8s.15-.77 1.16-1.03c-.9-.24-1.32-.8-1.32-1.7 0-1.27 1.02-2.1 2.6-2.1.34 0 .65.06 1.1.17.33.08.54.13.75.13.43 0 .9-.18 1.26-.52l.67 1.02c-.34.33-.67.46-1.1.46zm-2.7-.06c-.6 0-.98.33-.98.9 0 .63.38.88.95.88.62 0 .97-.3.97-.87 0-.55-.36-.9-.97-.9zm8.16 5.24c-.2-.15-.37-.35-.48-.6-.4.38-1 .58-1.64.58-.86 0-1.6-.4-1.8-1-.1-.27-.14-.6-.14-1.2V4.16l1.58-.3V7.8c0 .56.06.85.14 1s.33.3.56.3c.4 0 .88-.3 1-.6V4.2l1.54-.33v4.7c0 .4.13.82.37 1.1l-1.13.66zm5.05-4.9c-.14-.1-.27-.13-.45-.13-.36 0-.7.2-1 .55v4.34h-1.6V6.1c0-.84-.1-1.46-.22-1.8l1.44-.4c.14.25.22.5.25.87.35-.47.84-.88 1.44-.88.24 0 .35.02.6.13l-.45 1.4zm4.86 4.9c-.2-.15-.38-.35-.48-.6-.4.38-1 .58-1.64.58-.87 0-1.6-.4-1.8-1-.1-.27-.15-.6-.15-1.2V4.16l1.6-.3V7.8c0 .56.04.85.12 1s.32.3.56.3c.4 0 .87-.3 1-.6V4.2l1.52-.33v4.7c0 .4.14.82.38 1.1l-1.13.66z"/></svg>